<svg width="956" height="836" viewBox="0 0 956 836" fill="none" xmlns="http://www.w3.org/2000/svg">
<g clip-path="url(#clip0_822_2)">
<path d="M0.399902 0.600098L219.6 835.4V0.600098H0.399902ZM10.7999 0.600098L254.7 817.2V0.600098H10.7999ZM21.1999 0.600098L289.7 799V0.600098H21.1999ZM31.6999 0.600098L324.7 780.8V0.600098H31.6999ZM42.0999 0.600098L359.7 762.6V0.600098H42.0999ZM52.5999 0.600098L394.8 744.5V0.600098H52.5999ZM62.9999 0.600098L429.9 726.3V0.600098H62.9999ZM73.3999 0.600098L464.8 708.1V0.600098H73.3999ZM83.8999 0.600098L499.9 689.9V0.600098H83.8999ZM94.2999 0.600098L534.8 671.7V0.600098H94.2999ZM104.8 0.600098L569.9 653.5V0.600098H104.8ZM115.2 0.600098L604.9 635.3V0.600098H115.2ZM125.7 0.600098L640 617.1V0.600098H125.7ZM136.1 0.600098L675 598.9V0.600098H136.1ZM146.5 0.600098L710 580.7V0.600098H146.5ZM157 0.600098L745 562.5V0.600098H157ZM167 0.600098L780 544.3V0.600098H167ZM177.9 0.600098L815 526.1V0.600098H177.9ZM188.3 0.600098L850 507.9V0.600098H188.3ZM198.7 0.600098L885 489.8V0.600098H198.7ZM208.6 0.600098L920 471.6V0.600098H208.6ZM219.1 0.600098L955.1 453.4V0.600098H219.1Z" stroke="#008629" stroke-width="1.5" stroke-linejoin="round"/>
</g>
<defs>
<clipPath id="clip0_822_2">
<rect width="956" height="836" fill="white"/>
</clipPath>
</defs>
</svg>
